# xmcd
#
# Track frame offsets: 
#        150
#        30951
#        48169
#        68861
#        83091
#        106632
#        120757
#        133915
#        146893
#        160088
#        174194
#        187860
#        202367
#        223393
#        236959
#        249682
#        260379
#        277176
#
# Disc length: 3869 seconds
#
# Revision: 0
# Processed by: cddbd v1.5.2PL0 Copyright (c) Steve Scherf et al.
# Submitted via: ExactAudioCopy v0.99pb3
#
DISCID=070f1b12
DTITLE=The ways of the blues N°4 - Guitar Queen Of The Blues
DYEAR=2004
DGENRE=Blues
TTITLE0=Two Many Dirty Dishes , Albert Collins
TTITLE1=Donna Mill (Take 3) , J.B Hutto
TTITLE2=Honey Bee , Buster Benton
TTITLE3=You're So Sweet , Jimmy Rogers
TTITLE4=Be Carefull With A Fool , Johnny Winter
TTITLE5=Buck Dancer's Choice , Taj Mahal
TTITLE6=I Believe I'll Dust My Broom , Robert Johnson
TTITLE7=Warm It Up To Me , Blind Willie Mc Tell As Blind Willie
TTITLE8=Hot Fingers , Blind Willie Dunn and Lonnie Johnson
TTITLE9=It's Nobody's Fault But Mine , Blind Wilie Johnson
TTITLE10=I Love You, Mary Lou , Lonnie Johnson
TTITLE11=Getting Older Every Day , Big Bill Broonzy
TTITLE12=Streamline Woman , Muddy Waters
TTITLE13=Georgia Rag , Blind Willie Mc Tell As Georgia Bill
TTITLE14=Black Snake Moan , Blind Lemon Jefferson
TTITLE15=Stand Up (And Be Strong) , Keb' Mo'
TTITLE16=Country Boy , Roy Buchanan
TTITLE17=Prodigal Son , Joshua White
EXTD=
EXTT0=
EXTT1=
EXTT2=
EXTT3=
EXTT4=
EXTT5=
EXTT6=
EXTT7=
EXTT8=
EXTT9=
EXTT10=
EXTT11=
EXTT12=
EXTT13=
EXTT14=
EXTT15=
EXTT16=
EXTT17=
PLAYORDER=
